<svg width="192" height="192" viewBox="0 0 192 192" fill="none" xmlns="http://www.w3.org/2000/svg">
<path fill-rule="evenodd" clip-rule="evenodd" d="M121.936 119.736C128.995 110.952 132.455 99.8167 131.616 88.5802C130.777 77.3438 125.701 66.8452 117.416 59.2083C109.131 51.5715 98.2548 47.3661 86.9874 47.4432C75.7189 47.5202 64.9015 51.8737 56.7216 59.6231C48.5416 67.3724 43.6102 77.9399 42.9247 89.1866C42.2392 100.433 45.8508 111.521 53.0291 120.207C60.2073 128.891 70.4159 134.527 81.5916 135.972C92.7661 137.417 104.072 134.563 113.224 127.989L166.781 184.093C167.322 184.673 167.972 185.14 168.695 185.468C169.417 185.795 170.197 185.975 170.99 185.997C171.783 186.02 172.572 185.886 173.313 185.602C174.053 185.318 174.73 184.889 175.304 184.342C175.877 183.794 176.336 183.139 176.654 182.412C176.973 181.685 177.144 180.903 177.156 180.11C177.17 179.317 177.027 178.529 176.733 177.792C176.44 177.055 176.004 176.384 175.449 175.817V175.818L121.936 119.736ZM50.725 102.995C52.9857 110.424 57.4485 116.99 63.5229 121.825V121.826C70.9008 127.689 80.1781 130.631 89.5862 130.094C98.9942 129.555 107.875 125.573 114.535 118.907C120.018 113.41 123.704 106.377 125.102 98.7403C126.501 91.1033 125.547 83.2211 122.368 76.1383C119.189 69.0549 113.933 63.104 107.298 59.0732C100.662 55.0423 92.9587 53.1215 85.2071 53.5649C77.4556 54.0084 70.0217 56.7953 63.8889 61.5567C57.7562 66.3182 53.2139 72.8296 50.8632 80.2291C48.5125 87.6288 48.4644 95.5683 50.725 102.995Z" fill="#D9E2DC"/>
<path d="M147.013 101.092C147.013 101.596 146.864 102.088 146.583 102.507C146.304 102.926 145.906 103.253 145.44 103.446C144.975 103.639 144.463 103.689 143.967 103.591C143.473 103.493 143.019 103.25 142.663 102.893C142.306 102.537 142.063 102.083 141.966 101.589C141.867 101.094 141.918 100.582 142.11 100.116C142.303 99.6507 142.63 99.2527 143.049 98.9727C143.469 98.6927 143.96 98.5432 144.465 98.5432C145.14 98.5438 145.789 98.8125 146.266 99.2903C146.744 99.7681 147.012 100.416 147.013 101.092Z" stroke="#151A16" stroke-width="1.5" stroke-linecap="round" stroke-linejoin="round"/>
<path d="M109.855 79.8964L65.0117 105.705" stroke="#151A16" stroke-width="1.5" stroke-linecap="round" stroke-linejoin="round"/>
<path d="M100.339 115.223L74.5286 70.3784" stroke="#151A16" stroke-width="1.5" stroke-linecap="round" stroke-linejoin="round"/>
<path d="M167.509 105.08C175.154 106.456 180.03 109.111 181.122 113.074C184.561 125.555 149.105 146.244 101.909 159.247C54.7133 172.25 13.6697 172.685 10.2307 160.205C8.31628 153.262 18.4431 143.762 35.9546 134.484" stroke="#151A16" stroke-width="1.5" stroke-linecap="round" stroke-linejoin="round"/>
<path d="M49.2178 132.023C39.9209 136.714 33.0131 144.262 27.8522 152.517C27.7273 152.72 27.5563 152.891 27.3529 153.015C27.1496 153.14 26.9199 153.215 26.6823 153.234C26.4446 153.253 26.2059 153.216 25.9853 153.125C25.7648 153.035 25.5686 152.894 25.4128 152.713C23.7953 150.87 22.8404 149.816 21.2092 147.989C25.7613 143.133 30.2653 138.08 35.9546 134.486C29.7036 137.008 23.0388 139.626 17.4412 143.764C15.7858 141.913 14.8046 140.8 13.1722 138.949C13.0156 138.773 12.9017 138.563 12.8391 138.336C12.7765 138.108 12.767 137.87 12.8114 137.638C12.8557 137.407 12.9526 137.188 13.0947 137C13.2367 136.812 13.4202 136.659 13.6307 136.553C24.4778 131.215 36.4857 128.67 48.5655 129.148C48.9018 129.16 49.2248 129.282 49.4841 129.497C49.7432 129.712 49.9241 130.006 49.9986 130.334C50.073 130.662 50.0368 131.006 49.8956 131.311C49.7544 131.617 49.516 131.867 49.2178 132.023Z" stroke="#151A16" stroke-width="1.5" stroke-linecap="round" stroke-linejoin="round"/>
<path d="M11.4144 95.6345L15.8141 93.1733" stroke="#151A16" stroke-width="1.5" stroke-linecap="round" stroke-linejoin="round"/>
<path d="M23.6321 88.8172L28.0318 86.356" stroke="#151A16" stroke-width="1.5" stroke-linecap="round" stroke-linejoin="round"/>
<path d="M15.0735 82.6752L17.5347 87.0749" stroke="#151A16" stroke-width="1.5" stroke-linecap="round" stroke-linejoin="round"/>
<path d="M21.9115 94.8939L24.3727 99.3154" stroke="#151A16" stroke-width="1.5" stroke-linecap="round" stroke-linejoin="round"/>
<path d="M10.565 88.3817L15.4221 89.7756" stroke="#151A16" stroke-width="1.5" stroke-linecap="round" stroke-linejoin="round"/>
<path d="M24.0242 92.215L28.8813 93.5872" stroke="#151A16" stroke-width="1.5" stroke-linecap="round" stroke-linejoin="round"/>
<path d="M22.3253 81.8257L20.9531 86.6828" stroke="#151A16" stroke-width="1.5" stroke-linecap="round" stroke-linejoin="round"/>
<path d="M18.5149 95.3079L17.1209 100.143" stroke="#151A16" stroke-width="1.5" stroke-linecap="round" stroke-linejoin="round"/>
<path d="M121.936 119.735C128.995 110.953 132.455 99.8166 131.616 88.5802C130.777 77.3437 125.701 66.8455 117.416 59.2086C109.131 51.5717 98.2548 47.3664 86.9874 47.4435C75.7189 47.5204 64.9015 51.8739 56.7216 59.6234C48.5416 67.3727 43.6102 77.9398 42.9247 89.1866C42.2392 100.433 45.8508 111.521 53.0291 120.207C60.2073 128.892 70.4159 134.527 81.5916 135.972C92.7661 137.417 104.072 134.563 113.224 127.989L166.781 184.093C167.322 184.673 167.972 185.141 168.694 185.468C169.417 185.795 170.197 185.975 170.99 185.997C171.783 186.02 172.572 185.886 173.313 185.602C174.053 185.318 174.73 184.89 175.303 184.342C175.877 183.794 176.336 183.138 176.654 182.412C176.973 181.685 177.144 180.903 177.156 180.11C177.17 179.317 177.027 178.529 176.733 177.792C176.44 177.056 176.004 176.384 175.449 175.817M121.936 119.735L175.449 175.818V175.817M121.936 119.735L175.449 175.817M63.5229 121.825C57.4485 116.99 52.9855 110.424 50.725 102.997C48.4644 95.5683 48.5125 87.6287 50.8632 80.2291C53.2139 72.8298 57.7562 66.3183 63.8889 61.5569C70.0217 56.7956 77.4556 54.0087 85.2071 53.5652C92.9587 53.1217 100.662 55.0425 107.297 59.0734C113.933 63.1042 119.189 69.0552 122.368 76.1385C125.547 83.2222 126.501 91.1033 125.102 98.7402C123.704 106.378 120.018 113.41 114.535 118.907C107.875 125.573 98.9942 129.555 89.5862 130.094C80.1781 130.631 70.9008 127.69 63.5229 121.826V121.825Z" stroke="#151A16" stroke-width="1.5" stroke-linejoin="round"/>
<path d="M130.605 18.5381L116.738 42.4202" stroke="#151A16" stroke-width="1.5" stroke-linecap="round" stroke-linejoin="round"/>
<path d="M161.651 50.1819L137.668 63.9141" stroke="#151A16" stroke-width="1.5" stroke-linecap="round" stroke-linejoin="round"/>
<path d="M90.0051 5.99997L89.231 34.0615" stroke="#151A16" stroke-width="1.5" stroke-linecap="round" stroke-linejoin="round"/>
</svg>
