<svg width="192" height="192" viewBox="0 0 192 192" fill="none" xmlns="http://www.w3.org/2000/svg">
<path d="M19 95.8C19 116.169 27.0914 135.703 41.4942 150.106C55.897 164.509 75.4314 172.6 95.8 172.6C116.169 172.6 135.703 164.509 150.106 150.106C164.509 135.703 172.6 116.169 172.6 95.8C172.6 75.4314 164.509 55.897 150.106 41.4942C135.703 27.0914 116.169 19 95.8 19C75.4314 19 55.897 27.0914 41.4942 41.4942C27.0914 55.897 19 75.4314 19 95.8Z" fill="#EFF4F1" stroke="#646F68" stroke-width="1.5" stroke-linecap="round" stroke-dasharray="6 6"/>
<path d="M120.166 63.1923C118.734 62.4104 117.127 62.0004 115.495 62H76.569C74.9366 62.0004 73.3305 62.4104 71.8976 63.1923L49.0496 75.6493C48.8145 75.778 48.6074 75.9523 48.4404 76.1619C48.2733 76.3714 48.1496 76.6122 48.0766 76.87C48.0035 77.1279 47.9824 77.3977 48.0147 77.6638C48.0469 77.9299 48.1318 78.1869 48.2643 78.4198L56.1363 92.1843C56.3773 92.6062 56.7626 92.9268 57.2213 93.087C57.68 93.2472 58.1811 93.2362 58.6323 93.056L69.1923 88.832V128.276C69.1923 128.811 69.4047 129.324 69.7828 129.702C70.1609 130.08 70.6737 130.292 71.2083 130.292H120.846C121.381 130.292 121.893 130.079 122.271 129.701C122.649 129.323 122.862 128.811 122.862 128.276V88.8301L133.422 93.0541C133.873 93.2347 134.375 93.2459 134.833 93.0857C135.292 92.9255 135.677 92.6046 135.918 92.1824L143.79 78.4179C143.923 78.1852 144.009 77.9281 144.042 77.6619C144.074 77.3956 144.053 77.1255 143.98 76.8675C143.907 76.6094 143.783 76.3685 143.616 76.159C143.448 75.9495 143.24 75.7755 143.005 75.6474L120.166 63.1923Z" fill="#BBC6BE"/>
<path d="M71.8976 70.5094C73.3305 69.7275 74.9366 69.3176 76.569 69.3171H115.495C117.128 69.3178 118.735 69.7277 120.168 70.5094L141.624 82.2214L143.792 78.4275C143.925 78.1948 144.011 77.9377 144.044 77.6715C144.076 77.4052 144.055 77.1351 143.982 76.877C143.909 76.619 143.785 76.3781 143.618 76.1686C143.45 75.9591 143.242 75.7851 143.007 75.657L120.168 63.1923C118.735 62.4106 117.128 62.0007 115.495 62H76.569C74.9366 62.0004 73.3305 62.4104 71.8976 63.1923L49.0496 75.6493C48.8145 75.778 48.6074 75.9523 48.4404 76.1619C48.2733 76.3714 48.1496 76.6122 48.0766 76.87C48.0035 77.1279 47.9824 77.3977 48.0147 77.6638C48.0469 77.9299 48.1318 78.1869 48.2643 78.4198L50.432 82.2138L71.8976 70.5094Z" fill="#D9E2DC"/>
<path d="M120.166 63.1923C118.734 62.4104 117.127 62.0004 115.495 62H76.569C74.9366 62.0004 73.3305 62.4104 71.8976 63.1923L49.0496 75.6493C48.8145 75.778 48.6074 75.9523 48.4404 76.1619C48.2733 76.3714 48.1496 76.6122 48.0766 76.87C48.0035 77.1279 47.9824 77.3977 48.0147 77.6638C48.0469 77.9299 48.1318 78.1869 48.2643 78.4198L56.1363 92.1843C56.3773 92.6062 56.7626 92.9268 57.2213 93.087C57.68 93.2472 58.1811 93.2362 58.6323 93.056L69.1923 88.832V128.276C69.1923 128.811 69.4047 129.324 69.7828 129.702C70.1609 130.08 70.6737 130.292 71.2083 130.292H120.846C121.381 130.292 121.893 130.079 122.271 129.701C122.649 129.323 122.862 128.811 122.862 128.276V88.8301L133.422 93.0541C133.873 93.2347 134.375 93.2459 134.833 93.0857C135.292 92.9255 135.677 92.6046 135.918 92.1824L143.79 78.4179C143.923 78.1852 144.009 77.9281 144.042 77.6619C144.074 77.3956 144.053 77.1255 143.98 76.8675C143.907 76.6094 143.783 76.3685 143.616 76.159C143.448 75.9495 143.24 75.7755 143.005 75.6474L120.166 63.1923Z" stroke="#646F68" stroke-width="1.5" stroke-linecap="round" stroke-linejoin="round"/>
<path d="M108.228 62C108.269 63.6268 107.984 65.2454 107.389 66.7603C106.795 68.2752 105.903 69.6559 104.767 70.8209C103.631 71.9859 102.273 72.9118 100.774 73.544C99.2741 74.1762 97.6632 74.5019 96.0359 74.5019C94.4085 74.5019 92.7976 74.1762 91.2981 73.544C89.7986 72.9118 88.4408 71.9859 87.3046 70.8209C86.1684 69.6559 85.2769 68.2752 84.6825 66.7603C84.0882 65.2454 83.803 63.6268 83.8439 62H108.228Z" fill="#646F68" stroke="#646F68" stroke-width="1.5" stroke-linecap="round" stroke-linejoin="round"/>
<path d="M115.545 98.119C115.545 98.9652 115.279 99.7899 114.784 100.476C114.289 101.163 113.591 101.676 112.788 101.944L109.503 103.038C108.675 103.314 107.78 103.314 106.953 103.038L103.668 101.944C102.865 101.676 102.167 101.163 101.672 100.476C101.177 99.7899 100.911 98.9652 100.911 98.119V90.8461C100.911 90.3114 101.123 89.7986 101.501 89.4206C101.879 89.0425 102.392 88.8301 102.927 88.8301H113.529C114.064 88.8301 114.576 89.0425 114.954 89.4206C115.333 89.7986 115.545 90.3114 115.545 90.8461V98.119Z" fill="#D9E2DC" stroke="#646F68" stroke-width="1.5" stroke-linecap="round" stroke-linejoin="round"/>
</svg>
