<svg width="192" height="192" viewBox="0 0 192 192" fill="none" xmlns="http://www.w3.org/2000/svg">
<g id="192x192 / my-account">
<g id="Group">
<g id="Group_2">
<path id="Vector" d="M100.453 77.1295C98.3398 78.4045 95.9489 79.148 93.4854 79.2962C94.0608 80.9264 94.4882 82.6052 94.7622 84.3122L98.9938 86.1727L101.566 82.4335C101.335 80.639 100.963 78.8655 100.453 77.1295Z" fill="#02C652"/>
<path id="Vector_2" d="M127.612 45.0089C116.997 58.2511 108.26 63.2489 102.423 65.237C103.991 69.3957 105.214 72.4965 105.783 76.2357C105.801 76.2722 126.135 68.3378 135.551 51.8517C133.604 48.8675 130.851 46.4952 127.612 45.0089Z" fill="#02C652"/>
<path id="Vector_3" d="M97.7163 66.4044C96.7303 66.5651 95.7189 66.445 94.7979 66.0578C93.4664 67.6082 91.1864 68.1372 88.5051 68.2284C88.1036 68.7917 87.5877 69.2641 86.9912 69.6146C88.2948 71.6801 89.4807 73.8176 90.5432 76.0168C94.7567 75.7615 97.9487 74.9954 100.156 73.0255C99.5786 70.7385 98.7609 68.5191 97.7163 66.4044Z" fill="#02C652"/>
<path id="Vector_4" d="M52.4814 89.2591C63.0971 88.8578 76.7224 87.1471 87.0098 83.5317C85.5877 79.5497 83.7858 75.7138 81.629 72.077C73.7416 75.0482 67.4891 75.0386 51.4053 76.1445C55.1925 75.9362 56.0104 88.7676 52.4814 89.2591Z" fill="#02C652"/>
<path id="Vector_5" d="M137.244 41.7602L140.071 44.3138C140.339 44.553 140.692 44.6758 141.051 44.6553C141.41 44.6348 141.746 44.4726 141.986 44.2044L150.668 34.5602C150.908 34.2906 151.031 33.9373 151.012 33.5772C150.991 33.2173 150.828 32.8805 150.559 32.6402L144.065 26.7842C143.796 26.5443 143.443 26.4208 143.082 26.4405C142.904 26.4506 142.73 26.4959 142.569 26.5736C142.408 26.6514 142.264 26.7602 142.145 26.8936L133.462 36.5436C133.343 36.6766 133.251 36.832 133.192 37.0007C133.133 37.1694 133.108 37.3482 133.119 37.5266C133.128 37.705 133.173 37.8798 133.251 38.0406C133.329 38.2015 133.438 38.3453 133.572 38.4636L134.244 39.0655C135.256 37.566 137.512 34.4143 138.24 34.229C138.753 34.9471 138.2 36.8997 137.704 38.6469C137.289 40.1109 136.915 41.4309 137.244 41.7602Z" fill="#02C652"/>
</g>
<g id="Group_3">
<path id="Vector_6" d="M136.225 149.981C132.91 150.895 129.523 151.523 126.102 151.86C129.823 157.058 129.148 158.225 130.461 160.706C136.499 163.187 149.833 165.43 156.308 165.558C151.489 159.575 142.081 156.438 136.225 149.981Z" fill="#18181B"/>
<path id="Vector_7" d="M46.6267 123.477C42.5776 123.623 38.5252 123.299 34.5509 122.511C30.7579 130.719 28.0584 140.951 26.6895 147.573C36.1387 143.136 36.3759 133.44 46.0066 132.47C45.7481 129.458 45.9573 126.425 46.6267 123.477Z" fill="#18181B"/>
<path id="Vector_8" d="M53.3029 77.4943C52.1033 77.6498 50.8988 77.7654 49.6914 77.8408C50.5669 75.7442 52.0991 75.5608 53.3029 77.4943Z" fill="#18181B"/>
<path id="Vector_9" d="M54.1231 87.5445C53.1564 89.9339 51.4418 89.8063 50.2197 87.4533C51.8066 87.4562 53.2111 87.4898 54.1231 87.5445Z" fill="#18181B"/>
<path id="Vector_10" d="M149.812 102.336C149.533 101.731 149.082 101.221 148.514 100.872C147.947 100.523 147.288 100.349 146.622 100.374C145.956 100.399 145.313 100.62 144.773 101.011C144.233 101.401 143.82 101.943 143.588 102.568C143.415 103.035 143.347 103.535 143.391 104.031C143.434 104.528 143.587 105.008 143.838 105.439C144.089 105.869 144.433 106.238 144.844 106.52C145.255 106.802 145.723 106.989 146.215 107.068C146.707 107.147 147.211 107.115 147.689 106.977C148.168 106.838 148.609 106.594 148.983 106.264C149.356 105.934 149.652 105.526 149.848 105.068C150.044 104.61 150.137 104.114 150.119 103.616C150.102 103.173 149.998 102.738 149.812 102.336Z" fill="#18181B"/>
<path id="Vector_11" d="M99.4311 102.793C98.4826 105.31 97.5111 107.718 96.4551 110.053C97.0895 112.029 97.7939 113.982 98.5671 115.909C97.8989 110.199 99.4493 102.816 99.4311 102.793Z" fill="#18181B"/>
<path id="Vector_12" d="M92.1538 37.1464C89.2426 37.1495 86.4514 38.3073 84.3928 40.3659C82.3342 42.4245 81.1764 45.2156 81.1733 48.1269C81.1519 49.7751 81.4397 51.4127 82.022 52.9547C80.5925 50.4186 78.3261 48.4579 75.6105 47.4082C72.895 46.3585 69.8991 46.2851 67.1354 47.2004C64.3717 48.1157 62.0119 49.9629 60.4598 52.4259C58.9077 54.889 58.2596 57.8149 58.6265 60.703C58.9934 63.5911 60.3525 66.262 62.4712 68.2587C64.59 70.2554 67.3367 71.4538 70.2415 71.649C73.1462 71.8442 76.0286 71.0239 78.3954 69.3286C80.7621 67.6332 82.4663 65.1681 83.2162 62.3551C84.8031 63.2306 86.9372 63.34 88.3042 64.3067C88.0806 63.8594 87.1878 62.2379 86.6626 62.1727C83.1106 61.9538 83.2335 58.7253 85.2946 59.309C86.2796 59.5826 86.5167 59.3637 86.3506 58.8712C85.1285 56.2255 86.1135 49.7349 91.3484 55.1858C92.4838 56.2761 93.4492 57.5307 94.2121 58.9077C96.8974 58.3968 99.2955 56.9021 100.937 54.7161C102.578 52.5302 103.345 49.8104 103.086 47.0891C102.829 44.3679 101.565 41.8407 99.5425 40.0018C97.5201 38.163 94.8844 37.1448 92.1509 37.1464H92.1538Z" fill="#18181B"/>
<path id="Vector_13" d="M92.6099 63.5407C91.9715 63.7231 91.3187 63.8517 90.6582 63.9247L93.7408 65.4204C93.1378 64.9611 92.7332 64.2886 92.6099 63.5407Z" fill="#18181B"/>
<path id="Vector_14" d="M182.369 73.1714C182.587 73.6663 182.958 74.0781 183.427 74.346C183.897 74.6138 184.44 74.7236 184.977 74.6591C185.514 74.5946 186.015 74.3592 186.408 73.9877C186.801 73.6162 187.064 73.1283 187.158 72.5959C187.252 72.0636 187.172 71.5151 186.931 71.0314C186.689 70.5478 186.299 70.1546 185.817 69.91C185.335 69.6653 184.787 69.5822 184.254 69.6728C183.721 69.7635 183.231 70.0231 182.857 70.4133C182.511 70.7725 182.279 71.2267 182.193 71.718C182.106 72.2093 182.167 72.7153 182.369 73.1714Z" fill="#18181B"/>
<path id="Vector_15" d="M168.343 79.3548C168.542 79.8117 168.873 80.199 169.293 80.4674C169.714 80.7358 170.204 80.8731 170.703 80.862C171.075 80.8546 171.442 80.7646 171.775 80.5984C172.109 80.4322 172.402 80.1941 172.632 79.9011C172.862 79.6081 173.025 79.2676 173.108 78.9042C173.191 78.5408 173.192 78.1635 173.111 77.7996C173.031 77.4356 172.871 77.094 172.643 76.7994C172.415 76.5047 172.124 76.2643 171.792 76.0955C171.46 75.9267 171.094 75.8338 170.722 75.8233C170.349 75.8129 169.979 75.8852 169.638 76.0351C169.334 76.1674 169.06 76.3584 168.831 76.5971C168.601 76.8358 168.421 77.1174 168.301 77.4259C168.181 77.7343 168.122 78.0635 168.13 78.3945C168.137 78.7255 168.209 79.0519 168.343 79.3548Z" fill="#18181B"/>
</g>
<g id="Group_4">
<path id="Vector_16" d="M53.0469 140.952L57.2968 150.218C58.1416 152.058 59.6825 153.488 61.5807 154.192C63.4789 154.897 65.5792 154.819 67.42 153.976L108.022 135.37" stroke="#18181B" stroke-width="1.5" stroke-linecap="round" stroke-linejoin="round"/>
<path id="Vector_17" d="M126.536 126.888L161.467 110.892C163.306 110.046 164.735 108.506 165.44 106.608C166.144 104.71 166.067 102.609 165.224 100.769L140.655 47.1247" stroke="#18181B" stroke-width="1.5" stroke-linecap="round" stroke-linejoin="round"/>
<path id="Vector_18" d="M133.139 37.4757C131.441 37.0361 129.644 37.1972 128.051 37.9317L103.102 49.3548" stroke="#18181B" stroke-width="1.5" stroke-linecap="round" stroke-linejoin="round"/>
<path id="Vector_19" d="M43.6719 76.5641L62.292 68.0383" stroke="#18181B" stroke-width="1.5" stroke-linecap="round" stroke-linejoin="round"/>
<path id="Vector_20" d="M35.9381 80.1026L33.9864 80.9964C32.1467 81.8416 30.7176 83.3824 30.0129 85.2804C29.3083 87.1784 29.3856 89.2785 30.228 91.1196L45.0763 123.514" stroke="#18181B" stroke-width="1.5" stroke-linecap="round" stroke-linejoin="round"/>
<g id="Vector_21">
<path d="M114.479 106.656L124.839 101.914C125.242 101.726 125.554 101.387 125.708 100.97C125.862 100.553 125.845 100.093 125.66 99.6886L124.657 97.4633C124.469 97.0604 124.13 96.748 123.713 96.5942C123.296 96.4404 122.836 96.4578 122.431 96.6425L111.834 101.494" fill="#E4E4E7"/>
<path d="M114.479 106.656L124.839 101.914C125.242 101.726 125.554 101.387 125.708 100.97C125.862 100.553 125.845 100.093 125.66 99.6886L124.657 97.4633C124.469 97.0604 124.13 96.748 123.713 96.5942C123.296 96.4404 122.836 96.4578 122.431 96.6425L111.834 101.494" stroke="#18181B" stroke-width="1.5" stroke-linecap="round" stroke-linejoin="round"/>
</g>
<path id="Vector_22" d="M97.9171 114.248L93.3389 116.345" stroke="#18181B" stroke-width="1.5" stroke-linecap="round" stroke-linejoin="round"/>
<path id="Vector_23" d="M92.5908 63.5589C92.7157 64.1313 92.9861 64.6617 93.376 65.0989C93.7658 65.5362 94.2618 65.8654 94.8161 66.0549C95.7367 66.4437 96.7486 66.5637 97.7345 66.4015C109.663 64.5525 120.055 54.4178 127.612 45.006C130.849 46.492 133.6 48.8633 135.547 51.846C126.134 68.3349 105.797 76.2693 105.778 76.23" stroke="#18181B" stroke-width="1.5" stroke-linecap="round" stroke-linejoin="round"/>
<path id="Vector_24" d="M90.6395 63.9237C90.6395 63.9237 99.4293 63.5244 91.515 55.3509C86.0814 49.7388 85.1147 56.0546 86.2965 58.7676C86.6277 59.5269 86.0142 59.4952 85.277 59.2908C83.213 58.7148 83.0881 61.9356 86.6449 62.1544C86.9301 62.3052 87.1797 62.5173 87.3746 62.7746C89.7976 66.3084 89.7285 68.3935 85.733 70.2895C75.4283 75.1797 69.6818 74.8495 51.4053 76.1455" stroke="#18181B" stroke-width="1.5" stroke-linecap="round" stroke-linejoin="round"/>
<path id="Vector_25" d="M90.6582 63.9237L93.7225 65.4194" stroke="#18181B" stroke-width="1.5" stroke-linecap="round" stroke-linejoin="round"/>
<path id="Vector_26" d="M52.4629 89.2591C63.0786 88.8578 76.7038 87.1471 86.9912 83.5317" stroke="#18181B" stroke-width="1.5" stroke-linecap="round" stroke-linejoin="round"/>
<path id="Vector_27" d="M53.3022 77.4943C49.0302 78.0472 44.7092 78.102 40.4248 77.6584C39.1108 77.4749 37.8122 77.1945 36.5396 76.8194C35.075 76.4184 33.6372 75.925 32.235 75.342C28.3681 73.7522 27.4196 74.4664 31.0484 77.2389C35.1 79.9245 39.5006 82.0419 44.1275 83.5317" stroke="#18181B" stroke-width="1.5" stroke-linecap="round" stroke-linejoin="round"/>
<path id="Vector_28" d="M54.123 87.5445C51.2997 87.3756 41.8053 87.3525 39.0021 87.6175C34.0763 88.0917 35.7381 86.9973 37.2741 86.0671C38.3857 85.3951 43.6216 84.0789 41.7064 82.7071" stroke="#18181B" stroke-width="1.5" stroke-linecap="round" stroke-linejoin="round"/>
<path id="Vector_29" d="M35.9046 76.6188C35.0655 75.9986 33.4249 74.5567 32.9497 74.1381C30.7657 72.2181 31.454 71.7468 31.8735 71.9301C33.5545 72.6703 36.1417 74.1736 37.7295 74.8303C40.2831 75.8863 45.135 78.004 47.5426 77.9493" stroke="#18181B" stroke-width="1.5" stroke-linecap="round" stroke-linejoin="round"/>
<path id="Vector_30" d="M37.5612 74.7765C37.2511 74.3925 36.9785 74.0825 36.8316 73.901C35.0028 71.646 35.7372 71.2927 36.1203 71.5481C37.6563 72.5695 39.9718 74.4607 41.4281 75.3602C43.1806 76.3918 45.0246 77.2595 46.9366 77.9522" stroke="#18181B" stroke-width="1.5" stroke-linecap="round" stroke-linejoin="round"/>
<path id="Vector_31" d="M49.6904 77.8409C51.1035 74.454 53.9643 76.3903 54.6431 81.702C55.4399 87.942 52.4504 91.7503 50.2194 87.4533" stroke="#18181B" stroke-width="1.5" stroke-linecap="round" stroke-linejoin="round"/>
<path id="Vector_32" d="M137.244 41.7602C136.572 40.8665 138.156 37.4009 138.32 36.3429C138.593 34.5737 138.818 32.5893 136.022 36.6895C133.783 39.8123 131.365 42.8027 128.779 45.6453" stroke="#18181B" stroke-width="1.5" stroke-linecap="round" stroke-linejoin="round"/>
<path id="Vector_33" d="M137.243 41.7602L140.07 44.3138C140.339 44.553 140.692 44.6759 141.051 44.6553C141.41 44.6348 141.746 44.4726 141.986 44.2044L150.668 34.5602C150.908 34.2907 151.031 33.9374 151.012 33.5772C150.99 33.2173 150.827 32.8804 150.558 32.6402L144.065 26.7842C143.796 26.5444 143.442 26.4209 143.082 26.4405C142.904 26.4506 142.729 26.4957 142.568 26.5735C142.407 26.6513 142.264 26.7601 142.145 26.8937L133.462 36.5436C133.282 36.7439 133.166 36.9932 133.128 37.2598C133.091 37.5264 133.134 37.7981 133.252 38.0402C133.329 38.2005 133.438 38.3445 133.571 38.4636L134.243 39.0655" stroke="#18181B" stroke-width="1.5" stroke-linecap="round" stroke-linejoin="round"/>
<path id="Vector_34" d="M135.127 51.2287C137.973 48.1826 151.639 40.7906 149.829 40.5218C147.71 40.206 143.895 42.3122 143.482 42.5436" stroke="#18181B" stroke-width="1.5" stroke-linecap="round" stroke-linejoin="round"/>
<path id="Vector_35" d="M146.571 41.1141C147.001 40.8338 148.768 39.6924 150.231 38.8985C151.694 38.1045 148.516 38.0777 146.619 39.0626" stroke="#18181B" stroke-width="1.5" stroke-linecap="round" stroke-linejoin="round"/>
<path id="Vector_36" d="M139.518 43.8165C139.263 43.6744 137.811 42.9852 134.963 43.8415" stroke="#18181B" stroke-width="1.5" stroke-linecap="round" stroke-linejoin="round"/>
<path id="Vector_37" d="M154.207 100.331C154.484 100.937 154.575 101.612 154.47 102.27C154.364 102.928 154.066 103.54 153.612 104.029C153.042 104.64 152.266 105.017 151.433 105.088C150.601 105.159 149.771 104.919 149.106 104.413C148.441 103.907 147.987 103.172 147.833 102.351C147.679 101.53 147.835 100.68 148.272 99.9679C148.622 99.4001 149.132 98.9488 149.738 98.6709C150.343 98.3897 151.019 98.2957 151.678 98.4011C152.337 98.5064 152.95 98.8063 153.438 99.2623C153.762 99.5647 154.023 99.9276 154.207 100.331Z" stroke="#18181B" stroke-width="1.5" stroke-linecap="round" stroke-linejoin="round"/>
<path id="Vector_38" d="M149.811 102.336C150.089 102.942 150.18 103.617 150.074 104.275C149.969 104.933 149.67 105.545 149.217 106.034C148.764 106.523 148.175 106.865 147.527 107.019C146.878 107.174 146.198 107.133 145.573 106.901C144.948 106.669 144.406 106.256 144.016 105.715C143.723 105.312 143.524 104.848 143.432 104.358C143.341 103.868 143.359 103.364 143.486 102.882C143.613 102.4 143.845 101.952 144.166 101.57C144.487 101.189 144.889 100.884 145.343 100.676C146.156 100.311 147.081 100.281 147.917 100.591C148.753 100.902 149.433 101.529 149.811 102.336Z" stroke="#18181B" stroke-width="1.5" stroke-linecap="round" stroke-linejoin="round"/>
<path id="Vector_39" d="M145.415 104.362C145.692 104.968 145.784 105.643 145.678 106.301C145.572 106.959 145.274 107.571 144.821 108.06C144.367 108.548 143.779 108.891 143.13 109.045C142.482 109.2 141.802 109.159 141.176 108.927C140.551 108.694 140.009 108.282 139.619 107.741C139.327 107.337 139.128 106.874 139.036 106.384C138.944 105.894 138.963 105.389 139.09 104.907C139.216 104.425 139.449 103.977 139.77 103.596C140.091 103.215 140.493 102.909 140.946 102.702C141.551 102.421 142.227 102.327 142.886 102.432C143.546 102.537 144.158 102.837 144.646 103.293C144.97 103.596 145.231 103.959 145.415 104.362Z" stroke="#18181B" stroke-width="1.5" stroke-linecap="round" stroke-linejoin="round"/>
<path id="Vector_40" d="M59.2668 95.5202C60.4353 94.988 61.7672 94.9407 62.9706 95.3885C64.174 95.8364 65.1509 96.743 65.6872 97.9097L68.5509 104.184C69.0831 105.353 69.1304 106.685 68.6826 107.888C68.2347 109.092 67.3282 110.068 66.1615 110.605L57.1874 114.709C56.0189 115.241 54.6869 115.289 53.4834 114.841C52.2799 114.393 51.3031 113.486 50.7669 112.319L47.8869 106.045C47.3545 104.876 47.307 103.544 47.7549 102.341C48.2028 101.137 49.1095 100.16 50.2764 99.6242L59.2668 95.5202Z" fill="#E4E4E7" stroke="#18181B" stroke-width="1.5" stroke-linecap="round" stroke-linejoin="round"/>
<path id="Vector_41" d="M148.188 91.229C148.591 91.0412 148.903 90.702 149.056 90.2853C149.21 89.8685 149.193 89.4079 149.009 89.0037L148.006 86.7784C147.819 86.375 147.48 86.0621 147.063 85.9083C146.645 85.7544 146.184 85.7722 145.78 85.9576L128.816 93.7096C128.414 93.8975 128.102 94.2366 127.948 94.6534C127.794 95.0701 127.811 95.5307 127.995 95.9349L128.999 98.1602C129.186 98.5631 129.525 98.8755 129.942 99.0293C130.359 99.183 130.82 99.1657 131.224 98.981L148.188 91.229Z" fill="#E4E4E7" stroke="#18181B" stroke-width="1.5" stroke-linecap="round" stroke-linejoin="round"/>
<path id="Vector_42" d="M182.369 73.1714C182.587 73.6663 182.958 74.0781 183.427 74.346C183.897 74.6138 184.44 74.7236 184.977 74.6591C185.514 74.5946 186.015 74.3592 186.408 73.9877C186.801 73.6162 187.064 73.1283 187.158 72.5959C187.252 72.0636 187.172 71.5151 186.931 71.0314C186.689 70.5478 186.299 70.1546 185.817 69.91C185.335 69.6653 184.787 69.5822 184.254 69.6728C183.721 69.7635 183.231 70.0231 182.857 70.4133C182.511 70.7725 182.279 71.2267 182.193 71.718C182.106 72.2093 182.167 72.7153 182.369 73.1714Z" stroke="#18181B" stroke-width="1.5" stroke-linecap="round" stroke-linejoin="round"/>
<path id="Vector_43" d="M168.343 79.3548C168.542 79.8117 168.873 80.199 169.293 80.4674C169.714 80.7358 170.204 80.8732 170.703 80.862C171.075 80.8546 171.442 80.7646 171.775 80.5984C172.109 80.4323 172.402 80.1941 172.632 79.9011C172.862 79.6081 173.025 79.2676 173.108 78.9042C173.191 78.5408 173.192 78.1635 173.111 77.7996C173.031 77.4357 172.871 77.094 172.643 76.7994C172.415 76.5047 172.124 76.2643 171.792 76.0955C171.46 75.9268 171.094 75.8338 170.722 75.8233C170.349 75.8129 169.979 75.8852 169.638 76.0351C169.334 76.1675 169.06 76.3585 168.831 76.5971C168.601 76.8358 168.421 77.1175 168.301 77.4259C168.181 77.7344 168.122 78.0635 168.13 78.3945C168.137 78.7256 168.209 79.0519 168.343 79.3548Z" stroke="#18181B" stroke-width="1.5" stroke-linecap="round" stroke-linejoin="round"/>
<path id="Vector_44" d="M182.37 73.1714L172.958 77.3119" stroke="#18181B" stroke-width="1.5" stroke-linecap="round" stroke-linejoin="round"/>
<path id="Vector_45" d="M186.2 43.4037L181.093 45.6473L184.339 69.6511" stroke="#18181B" stroke-width="1.5" stroke-linecap="round" stroke-linejoin="round"/>
<path id="Vector_46" d="M183.792 65.62L165.078 71.6575L157.6 64.325L182.151 53.4904" stroke="#18181B" stroke-width="1.5" stroke-linecap="round" stroke-linejoin="round"/>
<path id="Vector_47" d="M96.4697 110.087C97.5257 107.753 98.4857 105.31 99.4313 102.791C99.4496 102.809 97.8953 110.197 98.574 115.906" stroke="#18181B" stroke-width="1.5" stroke-linecap="round" stroke-linejoin="round"/>
<path id="Vector_48" d="M81.6104 72.077C86.2616 79.6101 88.651 88.8213 89.4535 90.2805C94.0865 92.8888 102.787 90.7 105.614 87.6175C106.886 77.5538 105.71 73.9442 102.422 65.237" stroke="#18181B" stroke-width="1.5" stroke-linecap="round" stroke-linejoin="round"/>
<path id="Vector_49" d="M89.4536 90.2805C85.605 94.2569 81.3003 89.9522 75.8101 119.081C63.3522 119.008 58.8287 120.047 47.1551 121.415C45.0939 128.039 45.6776 135.15 48.1218 142.575L79.4946 132.268C81.698 131.542 83.6516 130.208 85.1307 128.42C89.7282 122.854 93.543 116.684 96.4693 110.084C100.396 122.52 110.992 141.364 117.89 152.258C128.45 152.258 137.225 150.452 144.194 146.786C125.57 132.377 109.25 97.1186 105.615 87.6156" stroke="#18181B" stroke-width="1.5" stroke-linecap="round" stroke-linejoin="round"/>
<path id="Vector_50" d="M86.9912 69.6146C88.2985 71.6821 89.4919 73.8193 90.5662 76.0168C94.7797 75.7615 97.9717 74.9954 100.179 73.0255C99.6001 70.7374 98.7808 68.517 97.7346 66.4015" stroke="#18181B" stroke-width="1.5" stroke-linecap="round" stroke-linejoin="round"/>
<path id="Vector_51" d="M101.569 82.4373L98.9967 86.1765L94.7622 84.316C94.4886 82.6072 94.0614 80.9272 93.4854 79.2962C95.9493 79.1467 98.3401 78.4019 100.453 77.1256C100.964 78.8632 101.337 80.6402 101.569 82.4373Z" stroke="#18181B" stroke-width="1.5" stroke-linecap="round" stroke-linejoin="round"/>
<path id="Vector_52" d="M136.224 149.981C142.08 156.438 151.488 159.575 156.307 165.558C149.832 165.43 136.498 163.187 130.46 160.706C129.147 158.225 129.822 157.058 126.101 151.86C129.523 151.525 132.909 150.896 136.224 149.981Z" stroke="#18181B" stroke-width="1.5" stroke-linecap="round" stroke-linejoin="round"/>
<path id="Vector_53" d="M46.6267 123.477C42.5776 123.623 38.5252 123.299 34.5509 122.511C30.7579 130.719 28.0584 140.951 26.6895 147.573C36.1387 143.136 36.3759 133.44 46.0066 132.47C45.748 129.458 45.9572 126.425 46.6267 123.477Z" stroke="#18181B" stroke-width="1.5" stroke-linecap="round" stroke-linejoin="round"/>
<path id="Vector_54" d="M88.5234 68.2466C91.2047 68.1554 93.4847 67.6264 94.8162 66.076" stroke="#18181B" stroke-width="1.5" stroke-linecap="round" stroke-linejoin="round"/>
<path id="Vector_55" d="M94.1951 58.8895C95.725 58.5967 97.1752 57.9818 98.4492 57.0855C99.7232 56.1892 100.792 55.032 101.584 53.6909C102.377 52.3498 102.875 50.8554 103.045 49.307C103.216 47.7586 103.055 46.1917 102.573 44.7103C101.763 42.2259 100.094 40.1117 97.8652 38.7477C95.6363 37.3837 92.9941 36.8593 90.4134 37.2688C87.8326 37.6783 85.4825 38.9948 83.7854 40.9817C82.0882 42.9686 81.1554 45.4956 81.1544 48.1087C81.1297 49.757 81.4197 51.395 82.0088 52.9346C80.5749 50.4026 78.306 48.4474 75.59 47.4031C72.8741 46.3588 69.8797 46.2903 67.1188 47.2093C64.3579 48.1284 62.002 49.9779 60.4538 52.4417C58.9057 54.9054 58.2614 57.8305 58.6311 60.7167C59.0008 63.603 60.3616 66.2712 62.4808 68.2652C64.6 70.2592 67.346 71.4551 70.2494 71.6486C73.1527 71.8421 76.0332 71.0211 78.3982 69.3259C80.7633 67.6308 82.4661 65.1668 83.2155 62.3551C84.8024 63.2306 86.9365 63.3401 88.3035 64.3068" stroke="#18181B" stroke-width="1.5" stroke-linecap="round" stroke-linejoin="round"/>
<path id="Vector_56" d="M34.5884 42.966C34.8013 43.435 34.8703 43.9567 34.7868 44.465C34.7032 44.9732 34.4708 45.4453 34.1189 45.8215C33.7671 46.1977 33.3115 46.4612 32.81 46.5785C32.3084 46.6958 31.7833 46.6618 31.3011 46.4806C30.8189 46.2995 30.4012 45.9795 30.1008 45.561C29.8005 45.1426 29.631 44.6444 29.6138 44.1296C29.5965 43.6148 29.7323 43.1064 30.004 42.6688C30.2757 42.2311 30.671 41.8839 31.1401 41.6709C31.4512 41.5277 31.7877 41.4476 32.1301 41.4352C32.4724 41.4229 32.8138 41.4785 33.1344 41.599C33.4551 41.7194 33.7487 41.9022 33.9983 42.1369C34.2479 42.3715 34.4484 42.6533 34.5884 42.966Z" stroke="#18181B" stroke-width="1.5" stroke-linecap="round" stroke-linejoin="round"/>
<path id="Vector_57" d="M43.4339 46.2309C43.6469 46.7 43.716 47.2217 43.6325 47.73C43.549 48.2384 43.3166 48.7105 42.9647 49.0868C42.6128 49.463 42.1572 49.7265 41.6556 49.8438C41.154 49.9611 40.6288 49.927 40.1466 49.7459C39.6643 49.5647 39.2466 49.2446 38.9463 48.826C38.646 48.4074 38.4766 47.9092 38.4594 47.3943C38.4423 46.8795 38.5783 46.3711 38.8501 45.9335C39.1219 45.4959 39.5174 45.1487 39.9866 44.9359C40.2977 44.7929 40.6341 44.713 40.9763 44.7008C41.3185 44.6886 41.6597 44.7443 41.9802 44.8647C42.3008 44.9852 42.5943 45.1679 42.8438 45.4024C43.0933 45.6369 43.2939 45.9185 43.4339 46.2309Z" stroke="#18181B" stroke-width="1.5" stroke-linecap="round" stroke-linejoin="round"/>
<path id="Vector_58" d="M33.6396 53.5087L39.6041 37.7311" stroke="#18181B" stroke-width="1.5" stroke-linecap="round" stroke-linejoin="round"/>
<path id="Vector_59" d="M95.4551 149.233L99.5591 158.153" stroke="#18181B" stroke-width="1.5" stroke-linecap="round" stroke-linejoin="round"/>
<path id="Vector_60" d="M101.966 151.641L93.0469 155.763" stroke="#18181B" stroke-width="1.5" stroke-linecap="round" stroke-linejoin="round"/>
<path id="Vector_61" d="M132.537 69.9429C133.092 70.3235 133.535 70.8454 133.821 71.4548C134.106 72.0641 134.223 72.7386 134.16 73.4085" stroke="#18181B" stroke-width="1.5" stroke-linecap="round" stroke-linejoin="round"/>
<path id="Vector_62" d="M134.488 67.0082C135.494 67.8326 136.302 68.8714 136.855 70.0485C137.407 71.2257 137.69 72.5114 137.681 73.8117" stroke="#18181B" stroke-width="1.5" stroke-linecap="round" stroke-linejoin="round"/>
<path id="Vector_63" d="M136.608 63.7231C139.488 66.5378 141.245 70.3048 141.551 74.3205" stroke="#18181B" stroke-width="1.5" stroke-linecap="round" stroke-linejoin="round"/>
<path id="Vector_64" d="M115.829 26.549L112.704 27.966C112.41 28.0793 112.158 28.2805 111.983 28.5421C111.807 28.8037 111.716 29.1131 111.723 29.428C111.728 29.6369 111.775 29.8427 111.861 30.0329C111.948 30.2231 112.072 30.3939 112.226 30.5349C112.459 30.7471 112.751 30.8824 113.064 30.9224C113.376 30.9624 113.693 30.9052 113.972 30.7586L115.723 29.9628C116.089 29.8068 116.502 29.8 116.873 29.9438C117.243 30.0877 117.543 30.3708 117.708 30.7328C117.873 31.0947 117.89 31.5068 117.756 31.8811C117.621 32.2555 117.345 32.5623 116.988 32.7362L113.842 34.1762" stroke="#18181B" stroke-width="1.5" stroke-linecap="round" stroke-linejoin="round"/>
<path id="Vector_65" d="M113.093 26.549L116.577 34.1743" stroke="#18181B" stroke-width="1.5" stroke-linecap="round" stroke-linejoin="round"/>
<path id="Vector_66" d="M15.2712 97.6322C15.0586 97.2264 14.699 96.9171 14.2659 96.7676C13.8328 96.6181 13.359 96.6396 12.9413 96.8278C12.5237 97.0169 12.1942 97.3587 12.0205 97.783C11.8468 98.2073 11.8421 98.682 12.0072 99.1097L12.8098 100.897" stroke="#18181B" stroke-width="1.5" stroke-linecap="round" stroke-linejoin="round"/>
<path id="Vector_67" d="M25.3758 105.383C25.8743 105.195 26.2879 104.834 26.5403 104.364C26.7928 103.895 26.867 103.351 26.7493 102.831C26.6316 102.312 26.3299 101.853 25.9 101.538C25.47 101.224 24.9408 101.076 24.4101 101.121C24.1099 101.144 23.8177 101.229 23.5518 101.37C16.2193 103.121 13.7022 102.866 12.8085 100.896C13.7022 102.866 12.2248 104.928 6.09615 109.305C5.59915 109.568 5.22137 110.011 5.03992 110.544C4.85848 111.076 4.88704 111.658 5.11979 112.17C5.35253 112.682 5.77191 113.086 6.29232 113.299C6.81274 113.512 7.39496 113.519 7.92015 113.318L25.3758 105.383Z" stroke="#18181B" stroke-width="1.5" stroke-linecap="round" stroke-linejoin="round"/>
</g>
</g>
</g>
</svg>
