<svg width="192" height="193" viewBox="0 0 192 193" fill="none" xmlns="http://www.w3.org/2000/svg">
<path d="M95.8386 66.0859L64.4658 84.6235L95.8386 103.162L127.211 84.6235L95.8386 66.0859Z" stroke="#151A16" stroke-width="1.5" stroke-linecap="round" stroke-linejoin="round"/>
<path d="M95.8389 103.162V136.307L127.212 116.951V84.623L95.8389 103.162Z" fill="#D9E2DC"/>
<path d="M95.8389 103.162V136.307L127.212 116.951V84.623L95.8389 103.162Z" stroke="#151A16" stroke-width="1.5" stroke-linecap="round" stroke-linejoin="round"/>
<path d="M64.4658 84.623V116.951L95.8386 136.307V103.162L64.4658 84.623Z" stroke="#151A16" stroke-width="1.5" stroke-linecap="round" stroke-linejoin="round"/>
<path d="M84.4769 72.7988L75.8926 77.8715L107.233 96.3899V114.805L111.525 108.865L115.817 109.732V91.3172L84.4769 72.7988Z" fill="#13C360"/>
<path d="M84.4769 72.7988L75.8926 77.8715L107.233 96.3899V114.805L111.525 108.865L115.817 109.732V91.3172L84.4769 72.7988Z" stroke="#151A16" stroke-width="1.5" stroke-linecap="round" stroke-linejoin="round"/>
<path d="M12.1604 106.488L9.31396 112.198L29.4116 117.403L33.0912 120.244L36.7719 112.862L12.1604 106.488Z" fill="#D9E2DC"/>
<path d="M12.1604 106.488L9.31396 112.198L29.4116 117.403L33.0912 120.244L36.7719 112.862L12.1604 106.488Z" stroke="#151A16" stroke-width="1.5" stroke-linecap="round" stroke-linejoin="round"/>
<path d="M12.1602 106.488V112.935" stroke="#151A16" stroke-width="1.5" stroke-linecap="round" stroke-linejoin="round"/>
<path d="M33.091 120.244L29.4113 117.403L4.7998 111.029V143.149L29.4113 149.522L33.091 145.386L36.7716 144.982V112.862L33.091 120.244Z" stroke="#151A16" stroke-width="1.5" stroke-linecap="round" stroke-linejoin="round"/>
<path d="M29.4111 117.402V149.522" stroke="#151A16" stroke-width="1.5" stroke-linecap="round" stroke-linejoin="round"/>
<path d="M33.0908 145.386V120.244" stroke="#151A16" stroke-width="1.5" stroke-linecap="round" stroke-linejoin="round"/>
<path d="M19.5588 119.692V126.044C19.5449 126.851 19.2143 127.621 18.6382 128.187C18.0621 128.753 17.2867 129.07 16.4791 129.07C15.6713 129.07 14.8956 128.754 14.3193 128.187C13.743 127.621 13.4123 126.852 13.3984 126.044V118.396" stroke="#151A16" stroke-width="1.5" stroke-linecap="round" stroke-linejoin="round"/>
<path d="M53.2606 58.7166C45.7637 66.3642 39.5564 75.1768 34.8805 84.8114L25.2363 79.9538L36.6891 98.405L58.1758 96.5474L48.7438 91.7973C52.738 83.6598 58.0096 76.2145 64.3582 69.7442C88.5282 44.9493 107.029 49.8808 124.416 67.157L135.286 56.0066C111.771 32.6402 83.4344 27.7653 53.2606 58.7166Z" stroke="#151A16" stroke-width="1.5" stroke-linecap="round" stroke-linejoin="round"/>
<path d="M138.416 143.336C145.914 135.688 152.121 126.874 156.797 117.238L166.441 122.096L154.989 103.645L133.499 105.502L142.933 110.254C138.939 118.391 133.667 125.836 127.319 132.305C103.15 157.097 84.6478 152.169 67.2612 134.893L56.3911 146.046C79.9063 169.412 108.244 174.286 138.416 143.336Z" stroke="#151A16" stroke-width="1.5" stroke-linecap="round" stroke-linejoin="round"/>
<path d="M152.232 86.9236V88.283C152.232 91.209 158.801 93.5812 166.904 93.5812C175.006 93.5812 181.575 91.209 181.575 88.283V83.5137C181.575 86.4378 175.003 88.81 166.904 88.81C164.329 88.8252 161.76 88.5641 159.241 88.0314" stroke="#151A16" stroke-width="1.5" stroke-linecap="round" stroke-linejoin="round"/>
<path d="M178.989 80.5098C178.071 81.0344 177.096 81.453 176.083 81.7578V82.7917C176.083 85.7178 169.515 88.0899 161.411 88.0899C160.673 88.0899 159.949 88.0707 159.241 88.0323C161.76 88.5651 164.329 88.8262 166.903 88.8109C175.007 88.8109 181.575 86.4406 181.575 83.5146C181.575 82.399 180.62 81.3632 178.989 80.5098Z" fill="#13C360"/>
<path d="M159.241 88.0323C161.76 88.5651 164.329 88.8262 166.903 88.8109C175.007 88.8109 181.575 86.4406 181.575 83.5146C181.575 82.399 180.615 81.3632 178.989 80.5098" stroke="#151A16" stroke-width="1.5" stroke-linecap="round" stroke-linejoin="round"/>
<path d="M165.967 83.0606C164.455 83.236 162.934 83.3229 161.411 83.3208C153.312 83.3208 146.746 80.9496 146.74 78.0254V82.7918C146.74 85.7179 153.309 88.09 161.411 88.09C169.514 88.09 176.083 85.7179 176.083 82.7918V81.756" stroke="#151A16" stroke-width="1.5" stroke-linecap="round" stroke-linejoin="round"/>
<path d="M151.769 77.7637V74.0293C148.688 75.0008 146.74 76.4293 146.74 78.0229C146.74 80.949 153.309 83.3183 161.411 83.3183C162.934 83.3214 164.455 83.2355 165.967 83.061C158.083 82.965 151.769 80.6322 151.769 77.7637Z" fill="#13C360"/>
<path d="M151.769 74.0293C148.688 75.0008 146.74 76.4293 146.74 78.0229C146.74 80.949 153.309 83.3183 161.411 83.3183C162.934 83.3214 164.455 83.2355 165.967 83.061" stroke="#151A16" stroke-width="1.5" stroke-linecap="round" stroke-linejoin="round"/>
<path d="M166.441 67.6934C158.337 67.6934 151.769 70.0655 151.769 72.9916V77.7628C151.769 80.6889 158.337 83.0601 166.441 83.0601C174.544 83.0601 181.111 80.6879 181.111 77.7628V72.9916C181.111 70.0655 174.543 67.6934 166.441 67.6934Z" stroke="#151A16" stroke-width="1.5" stroke-linecap="round" stroke-linejoin="round"/>
<path d="M151.769 72.9922C151.769 75.9173 158.337 78.2895 166.441 78.2895C174.544 78.2895 181.111 75.9173 181.111 72.9922" stroke="#151A16" stroke-width="1.5" stroke-linecap="round" stroke-linejoin="round"/>
<path d="M168.013 71.1504C167.622 70.8296 167.152 70.62 166.652 70.5438C166.152 70.4676 165.641 70.5276 165.172 70.7174L164.397 70.9642C163.287 71.3175 162.751 72.0922 163.203 72.6845C163.594 73.0053 164.064 73.2149 164.564 73.2911C165.064 73.3673 165.575 73.3073 166.044 73.1174L166.837 72.865C167.306 72.6757 167.817 72.6161 168.317 72.6924C168.817 72.7688 169.287 72.9783 169.678 73.2989C170.13 73.8912 169.594 74.665 168.484 75.0183L167.709 75.2659C167.24 75.4554 166.729 75.5151 166.229 75.4388C165.729 75.3624 165.259 75.1528 164.869 74.832" stroke="#151A16" stroke-width="1.5" stroke-linecap="round" stroke-linejoin="round"/>
<path d="M164.311 70.2051L168.519 75.7097" stroke="#151A16" stroke-width="1.5" stroke-linecap="round" stroke-linejoin="round"/>
<path d="M154.953 141.939H165.51" stroke="#151A16" stroke-width="1.5" stroke-linecap="round" stroke-linejoin="round"/>
<path d="M160.232 147.219V136.662" stroke="#151A16" stroke-width="1.5" stroke-linecap="round" stroke-linejoin="round"/>
<path d="M17.8691 45.4277L25.3341 52.8927" stroke="#151A16" stroke-width="1.5" stroke-linecap="round" stroke-linejoin="round"/>
<path d="M17.8691 52.8927L25.3341 45.4277" stroke="#151A16" stroke-width="1.5" stroke-linecap="round" stroke-linejoin="round"/>
<path d="M43.0317 27.9355L46.8391 31.7429" stroke="#151A16" stroke-width="1.5" stroke-linecap="round" stroke-linejoin="round"/>
<path d="M43.0317 31.7429L46.8391 27.9355" stroke="#151A16" stroke-width="1.5" stroke-linecap="round" stroke-linejoin="round"/>
<path d="M158.244 55.1787L161.508 60.5615L165.346 52.5195" stroke="#151A16" stroke-width="1.5" stroke-linecap="round" stroke-linejoin="round"/>
<path d="M181.441 118.867H187.199" stroke="#151A16" stroke-width="1.5" stroke-linecap="round" stroke-linejoin="round"/>
<path d="M184.32 121.746V115.988" stroke="#151A16" stroke-width="1.5" stroke-linecap="round" stroke-linejoin="round"/>
</svg>
